<svg width="480" height="480" viewBox="0 0 480 480" fill="none" xmlns="http://www.w3.org/2000/svg">
<path d="M59 391C66.4667 353.4 73.6667 316.733 80.6 281C83.2667 266.067 86.0667 250.467 89 234.2C92.2 217.667 95.1333 201.533 97.8 185.8C100.467 169.8 102.867 154.467 105 139.8C107.4 124.867 109.267 111.267 110.6 99C118.867 98.4667 126.867 97.9333 134.6 97.4C141.533 96.8667 148.6 96.4667 155.8 96.2C163 95.6667 169.4 95.1333 175 94.6C178.467 115.133 181.533 134.733 184.2 153.4C185.533 161.4 186.867 169.8 188.2 178.6C189.8 187.133 191.267 195.4 192.6 203.4C193.933 211.4 195.267 219.133 196.6 226.6C197.933 233.8 199.267 240.2 200.6 245.8C201.667 240.2 202.867 233.8 204.2 226.6C205.533 219.133 207 211.4 208.6 203.4C210.2 195.133 211.8 186.733 213.4 178.2C215.267 169.667 217 161.4 218.6 153.4C222.6 134.733 226.733 115.267 231 95L279.8 89C270.733 129 262.733 166.867 255.8 202.6C252.6 218.067 249.4 233.667 246.2 249.4C243.267 265.133 240.467 280.333 237.8 295C235.133 309.667 232.867 323.267 231 335.8C229.133 348.067 227.667 358.467 226.6 367C225.8 367 222.6 367.667 217 369C211.667 370.067 205.4 371.4 198.2 373C191.267 374.6 184.2 376.333 177 378.2C170.067 379.8 164.867 381.133 161.4 382.2C159.533 360.6 157.533 340.067 155.4 320.6C154.6 312.333 153.667 303.8 152.6 295C151.533 286.2 150.467 277.8 149.4 269.8C148.6 261.8 147.667 254.333 146.6 247.4C145.8 240.2 145 234.2 144.2 229.4C143.4 234.2 142.333 240.067 141 247C139.667 253.933 138.333 261.4 137 269.4C135.667 277.133 134.333 285.267 133 293.8C131.667 302.067 130.2 310.2 128.6 318.2C125.133 337.133 121.4 356.867 117.4 377.4L59 391Z" fill="#FC76FF"/>
<path d="M383.4 384C376.733 385.067 369.4 386.267 361.4 387.6C353.4 388.933 346.2 390.133 339.8 391.2C340.867 382.4 341.933 373.733 343 365.2C343.8 357.733 344.467 350.267 345 342.8C345.8 335.333 346.467 328.933 347 323.6H312.2L296.2 381.2C290.333 382 283.4 382.933 275.4 384C267.4 384.8 259.933 385.6 253 386.4C244.467 387.467 236.067 388.533 227.8 389.6C238.467 354.133 249 319.2 259.4 284.8C263.667 270.4 268.067 255.333 272.6 239.6C277.4 223.867 282.067 208.267 286.6 192.8C291.4 177.067 295.933 162 300.2 147.6C304.467 133.2 308.2 120 311.4 108C329.533 106.667 347.933 105.067 366.6 103.2C385.533 101.333 403.933 98.8 421.8 95.6C421 104.133 420.067 114.8 419 127.6C418.2 140.133 417.4 153.867 416.6 168.8C415.8 183.733 415 199.333 414.2 215.6C413.4 231.867 412.6 247.867 411.8 263.6C410.467 300.4 409 339.467 407.4 380.8C399.4 382.133 391.4 383.2 383.4 384ZM321.8 283.6C322.867 283.6 324.733 283.6 327.4 283.6C330.333 283.333 333.267 283.2 336.2 283.2C339.4 282.933 342.333 282.8 345 282.8C347.667 282.533 349.533 282.267 350.6 282C350.6 280.4 350.733 277.733 351 274C351.533 270 351.933 265.6 352.2 260.8C352.733 255.733 353.267 250.267 353.8 244.4C354.333 238.533 354.867 232.8 355.4 227.2C356.467 213.6 357.8 198.933 359.4 183.2L361.8 148.4L355.8 148.8L346.6 183.2L321.8 283.6Z" fill="#800095"/>
</svg>
